<svg width="16" height="18" viewBox="0 0 16 18" fill="none" xmlns="http://www.w3.org/2000/svg">
<path d="M1 5.10388H15.5" stroke="#494C6B" stroke-miterlimit="10" stroke-linecap="round" stroke-linejoin="round"/>
<path d="M1 8.62061H15.5" stroke="#494C6B" stroke-miterlimit="10" stroke-linecap="round" stroke-linejoin="round"/>
<path d="M1 12.1711H15.5" stroke="#494C6B" stroke-miterlimit="10" stroke-linecap="round" stroke-linejoin="round"/>
<path d="M6.08532 1.89479L8.21565 0.0512104C8.28437 -0.0170701 8.38745 -0.0170701 8.45617 0.0512104L10.4491 1.89479C10.5521 1.99721 10.4834 2.20205 10.346 2.20205H6.1884C6.0166 2.16791 5.94788 1.99721 6.08532 1.89479Z" fill="#494C6B"/>
<path d="M6.08532 15.1754L8.21565 17.019C8.28437 17.0873 8.38745 17.0873 8.45617 17.019L10.4834 15.1754C10.5865 15.073 10.5178 14.8682 10.3803 14.8682H6.1884C6.0166 14.8682 5.94788 15.073 6.08532 15.1754Z" fill="#494C6B"/>
</svg>
